<svg id="Layer_1" data-name="Layer 1" xmlns="http://www.w3.org/2000/svg" xmlns:xlink="http://www.w3.org/1999/xlink" viewBox="0 0 1156.94 1809.73"><defs><style>.cls-1{fill:none;stroke-miterlimit:10;stroke-width:35px;stroke:url(#New_Gradient_Swatch_1);}.cls-2{fill:url(#linear-gradient);}.cls-3{fill:url(#linear-gradient-2);}.cls-4{fill:url(#linear-gradient-3);}.cls-5{fill:url(#New_Gradient_Swatch_1-2);}.cls-6{fill:url(#New_Gradient_Swatch_1-4);}.cls-7{fill:url(#New_Gradient_Swatch_1-9);}.cls-8{fill:url(#New_Gradient_Swatch_1-30);}.cls-9{fill:url(#New_Gradient_Swatch_1-32);}</style><linearGradient id="New_Gradient_Swatch_1" x1="10.09" y1="558.41" x2="1126.91" y2="558.41" gradientUnits="userSpaceOnUse"><stop offset="0" stop-color="#438181"/><stop offset="1" stop-color="#326060"/></linearGradient><linearGradient id="linear-gradient" x1="1034.19" y1="1366.9" x2="1505.8" y2="927.59" xlink:href="#New_Gradient_Swatch_1"/><linearGradient id="linear-gradient-2" x1="1531.8" y1="1367.39" x2="2006.96" y2="924.78" xlink:href="#New_Gradient_Swatch_1"/><linearGradient id="linear-gradient-3" x1="1351.67" y1="1322.82" x2="1718.02" y2="981.56" xlink:href="#New_Gradient_Swatch_1"/><linearGradient id="New_Gradient_Swatch_1-2" x1="876.45" y1="1990.52" x2="2144.71" y2="1990.52" xlink:href="#New_Gradient_Swatch_1"/><linearGradient id="New_Gradient_Swatch_1-4" x1="876.45" y1="1990.52" x2="2144.71" y2="1990.52" xlink:href="#New_Gradient_Swatch_1"/><linearGradient id="New_Gradient_Swatch_1-9" x1="876.45" y1="2248.56" x2="2144.71" y2="2248.56" xlink:href="#New_Gradient_Swatch_1"/><linearGradient id="New_Gradient_Swatch_1-30" x1="876.45" y1="2385.95" x2="2144.71" y2="2385.95" xlink:href="#New_Gradient_Swatch_1"/><linearGradient id="New_Gradient_Swatch_1-32" x1="876.45" y1="2385.95" x2="2144.71" y2="2385.95" xlink:href="#New_Gradient_Swatch_1"/></defs><circle class="cls-1" cx="568.5" cy="558.41" r="540.91"/><path class="cls-2" d="M1193.25,1125.74q6.74-13.08,11.22-32.89t4.48-50.46V936.24c0-79.19,32.43-80.73,77.74-80.73,0,0,15,.87,15-14.46s-15-16.18-15-16.18h-35.13c-15.52,0-74,4.18-74,88.2v128.57a257,257,0,0,1-2.25,32.52,113.51,113.51,0,0,1-9,32.51,71.62,71.62,0,0,1-18.31,25q-11.6,10.08-29.53,10.83s-20,.5-20,17.45,20,16.94,20,16.94q17.94.75,29.53,10.84a71.76,71.76,0,0,1,18.31,25,113.66,113.66,0,0,1,9,32.52,257.13,257.13,0,0,1,2.25,32.51v111.38c0,100.49,63.53,103.9,74,103.9h35.13s15,.59,15-14.75-15-15.15-15-15.15c-20.68,0-77.74,11.15-77.74-81.47v-105.4q0-29.89-4.48-49.71t-11.22-33.27q-6.72-13.45-15.32-21.3a103.72,103.72,0,0,0-17.57-13.08,114.61,114.61,0,0,0,17.57-12.71Q1186.51,1138.84,1193.25,1125.74Z" transform="translate(-931.5 -614.7)"/><path class="cls-3" d="M1896,1142.55q-17.94-.73-29.53-10.83a71.62,71.62,0,0,1-18.31-25,113.51,113.51,0,0,1-9-32.51,256.92,256.92,0,0,1-2.24-32.52V913.07c0-84-58.49-88.2-74-88.2h-35.13s-15,.85-15,16.18,15,14.46,15,14.46c45.31,0,77.74,1.54,77.74,80.73v106.15q0,30.66,4.49,50.46t11.21,32.89q6.72,13.08,15.32,20.55a115.1,115.1,0,0,0,17.57,12.71,104.12,104.12,0,0,0-17.57,13.08q-8.58,7.85-15.32,21.3T1810,1226.65q-4.48,19.81-4.49,49.71v105.4c0,92.62-57,81.47-77.74,81.47,0,0-15-.18-15,15.15s15,14.75,15,14.75h35.13c10.47,0,74-3.41,74-103.9V1277.85a257,257,0,0,1,2.24-32.51,113.66,113.66,0,0,1,9-32.52,71.76,71.76,0,0,1,18.31-25q11.61-10.1,29.53-10.84s20,0,20-16.94S1896,1142.55,1896,1142.55Z" transform="translate(-931.5 -614.7)"/><path class="cls-4" d="M1620.11,1200.83A60.72,60.72,0,0,0,1565,1287.1c-52,27.75-120.25,20.8-164.75-21.47-57.67-54.78-62-145.07-9.7-203.59,44.92-50.28,118.69-61,174.35-27.28a60.78,60.78,0,1,0,24.43-25.56c-40.16-26.11-97.21-34.9-147.22-19.17-77.24,24.29-128.45,99.39-122.89,180.2,5.61,81.53,66.38,149.26,146.73,164.89,40.22,7.83,87.13-2.16,122.63-21.63a60.74,60.74,0,1,0,31.53-112.66Zm-1-169.45a30.75,30.75,0,1,1-30.75,30.74A30.77,30.77,0,0,1,1619.11,1031.38Zm1,260.95a30.75,30.75,0,1,1,30.74-30.75A30.78,30.78,0,0,1,1620.11,1292.33Z" transform="translate(-931.5 -614.7)"/><path class="cls-5" d="M1079.51,2078.32c0,45.16-29.27,61.88-73.59,61.88h-.83c-44.32,0-73.59-16.3-73.59-61.88V1902.71c0-43.48,29.27-61.88,73.59-61.88h.83c44.32,0,73.59,18.4,73.59,61.88v53.52H1031v-46c0-20.49-10-26.76-25.51-26.76s-25.5,6.27-25.5,26.76v160.55c0,20.49,10,26.76,25.5,26.76s25.51-6.27,25.51-26.76v-53.1h48.5Z" transform="translate(-931.5 -614.7)"/><path class="cls-5" d="M1189.89,1840.83h3.35c44.32,0,73.59,17.56,73.59,61.88v175.61c0,44.32-29.27,61.88-73.59,61.88h-3.35c-44.32,0-73.59-17.56-73.59-61.88V1902.71C1116.3,1858,1145.57,1840.83,1189.89,1840.83Zm1.68,256.72c15.88,0,26.76-5.85,26.76-26.76V1910.24c0-20.91-10.88-26.76-26.76-26.76s-26.76,5.85-26.76,26.76v160.55C1164.81,2091.7,1175.68,2097.55,1191.57,2097.55Z" transform="translate(-931.5 -614.7)"/><path class="cls-6" d="M1455.4,1906.06V2075c0,44.32-29.27,61.88-73.59,61.88H1307V1844.17h74.84C1426.13,1844.17,1455.4,1861.73,1455.4,1906.06Zm-75.26-19.24h-24.67v207.39h24.67c15.89,0,26.76-5.85,26.76-26.76V1913.58C1406.9,1892.68,1396,1886.82,1380.14,1886.82Z" transform="translate(-931.5 -614.7)"/><path class="cls-6" d="M1495.54,2136.86V1844.17H1544l61.47,181v-181h44.32v292.69h-46l-64-190.25v190.25Z" transform="translate(-931.5 -614.7)"/><path class="cls-6" d="M1693.31,2136.86V1844.17h48.51v292.69Z" transform="translate(-931.5 -614.7)"/><path class="cls-6" d="M1785.3,1844.17H1912v42.65H1833.8v82.37H1899v42.65H1833.8v125h-48.5Z" transform="translate(-931.5 -614.7)"/><path class="cls-6" d="M2029.48,2136.86H1981V2032.75l-59-188.58h51l32.61,135.89,32.61-135.89h50.18l-59,188.58Z" transform="translate(-931.5 -614.7)"/><path class="cls-7" d="M994.66,2222v53.08c0,13.93-9.2,19.45-23.13,19.45H948v-92h23.52C985.46,2202.57,994.66,2208.09,994.66,2222ZM971,2216h-7.75v65.18H971c5,0,8.42-1.84,8.42-8.41v-48.36C979.42,2217.81,976,2216,971,2216Z" transform="translate(-931.5 -614.7)"/><path class="cls-7" d="M1007.8,2294.55v-92H1023v92Z" transform="translate(-931.5 -614.7)"/><path class="cls-7" d="M1083.49,2276.16c0,14.19-9.2,19.44-23.13,19.44h-1c-13.93,0-23.13-5.12-23.13-19.44V2221c0-13.66,9.2-19.44,23.13-19.44h1c13.93,0,23.13,5.78,23.13,19.44v13.14h-15.24v-10.77c0-6.57-3.42-8.41-8.41-8.41s-8.41,1.84-8.41,8.41v50.46c0,6.57,3.41,8.41,8.41,8.41s8.41-1.84,8.41-8.41v-13.67h-8.94v-12.87h24.18Z" transform="translate(-931.5 -614.7)"/><path class="cls-7" d="M1096.37,2294.55v-92h15.24v92Z" transform="translate(-931.5 -614.7)"/><path class="cls-7" d="M1166,2216h-15.38v78.58H1135.4V2216H1120v-13.4h46Z" transform="translate(-931.5 -614.7)"/><path class="cls-7" d="M1197.43,2274.05h-16.82l-3.29,20.5H1162.6l17.09-92h19.18l17.35,92h-15.51Zm-2-12.61-6.43-40.87-6.44,40.87Z" transform="translate(-931.5 -614.7)"/><path class="cls-7" d="M1262.61,2294.55h-38.77v-92h15.24v78.32h23.53Z" transform="translate(-931.5 -614.7)"/><path class="cls-7" d="M1331.2,2216h-15.37v78.58h-15.25V2216h-15.37v-13.4h46Z" transform="translate(-931.5 -614.7)"/><path class="cls-7" d="M1373.65,2294.55l-11.7-36.66h-7.62v36.66h-15.24v-92h23.78c13.93,0,23.13,5.52,23.13,19.45v16.42c0,8.81-3.68,14.32-10,17.08l13.14,39Zm-19.32-49.8h8c5,0,8.41-1.84,8.41-8.41v-12c0-6.57-3.42-8.41-8.41-8.41h-8Z" transform="translate(-931.5 -614.7)"/><path class="cls-7" d="M1427.66,2274.05h-16.83l-3.28,20.5h-14.72l17.09-92h19.18l17.35,92h-15.51Zm-2-12.61-6.43-40.87-6.44,40.87Z" transform="translate(-931.5 -614.7)"/><path class="cls-7" d="M1454.07,2294.55v-92h15.24l19.32,56.9v-56.9h13.93v92H1488.1l-20.1-59.79v59.79Z" transform="translate(-931.5 -614.7)"/><path class="cls-7" d="M1544.35,2235.42v-12.88c0-5.78-3.29-7.88-7.75-7.88s-7.76,2.1-7.76,7.88v6.31c0,4.73,1.58,6.83,5.92,9.33l10.77,6c8.81,5,14.06,9.07,14.06,18.93v13.27c0,14.19-8.8,19.18-22.73,19.18h-.26c-13.93,0-22.74-4.86-22.74-19.18v-16h15v13.93c0,5.65,3.29,8.14,7.89,8.14s7.88-2.49,7.88-8.14v-7.23c0-4.73-1.44-7.1-6-9.59l-10.65-6.05c-8.93-5.12-14.06-9.33-14.06-18.92v-12.09c0-13.67,10-18.92,22.6-18.92h.27c12.61,0,22.6,5.25,22.6,18.92v15Z" transform="translate(-931.5 -614.7)"/><path class="cls-7" d="M1570.63,2202.57h39.82V2216h-24.58v25.89h20.5v13.4h-20.5v39.29h-15.24Z" transform="translate(-931.5 -614.7)"/><path class="cls-7" d="M1641.72,2201.52h1c13.93,0,23.13,5.51,23.13,19.44v55.2c0,13.93-9.2,19.44-23.13,19.44h-1c-13.93,0-23.13-5.51-23.13-19.44V2221C1618.59,2206.9,1627.79,2201.52,1641.72,2201.52Zm.53,80.68c5,0,8.41-1.84,8.41-8.41v-50.46c0-6.57-3.42-8.41-8.41-8.41s-8.41,1.84-8.41,8.41v50.46C1633.84,2280.36,1637.25,2282.2,1642.25,2282.2Z" transform="translate(-931.5 -614.7)"/><path class="cls-7" d="M1713.08,2294.55l-11.7-36.66h-7.62v36.66h-15.24v-92h23.78c13.93,0,23.13,5.52,23.13,19.45v16.42c0,8.81-3.68,14.32-10,17.08l13.14,39Zm-19.32-49.8h8c5,0,8.41-1.84,8.41-8.41v-12c0-6.57-3.42-8.41-8.41-8.41h-8Z" transform="translate(-931.5 -614.7)"/><path class="cls-7" d="M1774.31,2281.15h-8.54L1752,2238.31v56.24h-14.2v-92h14.46l17.74,53.48,17.87-53.48h15v92h-14.72v-56.24Z" transform="translate(-931.5 -614.7)"/><path class="cls-7" d="M1845.28,2274.05h-16.82l-3.29,20.5h-14.72l17.09-92h19.18l17.35,92h-15.51Zm-2-12.61-6.43-40.87-6.44,40.87Z" transform="translate(-931.5 -614.7)"/><path class="cls-7" d="M1906.64,2216h-15.37v78.58H1876V2216h-15.38v-13.4h46Z" transform="translate(-931.5 -614.7)"/><path class="cls-7" d="M1915.06,2294.55v-92h15.24v92Z" transform="translate(-931.5 -614.7)"/><path class="cls-7" d="M1966.57,2201.52h1c13.93,0,23.13,5.51,23.13,19.44v55.2c0,13.93-9.2,19.44-23.13,19.44h-1c-13.93,0-23.13-5.51-23.13-19.44V2221C1943.44,2206.9,1952.64,2201.52,1966.57,2201.52Zm.52,80.68c5,0,8.41-1.84,8.41-8.41v-50.46c0-6.57-3.41-8.41-8.41-8.41s-8.41,1.84-8.41,8.41v50.46C1958.68,2280.36,1962.1,2282.2,1967.09,2282.2Z" transform="translate(-931.5 -614.7)"/><path class="cls-7" d="M2003.36,2294.55v-92h15.25l19.31,56.9v-56.9h13.93v92H2037.4l-20.11-59.79v59.79Z" transform="translate(-931.5 -614.7)"/><path class="cls-8" d="M1364.24,2423.58v-75.26h12.48l15.8,46.55v-46.55h11.4v75.26h-11.83l-16.45-48.92v48.92Z" transform="translate(-931.5 -614.7)"/><path class="cls-8" d="M1415.1,2423.58v-75.26h12.47v75.26Z" transform="translate(-931.5 -614.7)"/><path class="cls-9" d="M1477,2408.52c0,11.61-7.53,15.92-18.92,15.92h-.86c-11.4,0-18.93-4.2-18.93-15.92v-45.15c0-11.18,7.53-15.91,18.93-15.91h.86c11.39,0,18.92,4.73,18.92,15.91v10.75h-12.47v-8.82c0-5.37-2.8-6.88-6.88-6.88s-6.89,1.51-6.89,6.88v41.29c0,5.37,2.8,6.88,6.89,6.88s6.88-1.51,6.88-6.88v-11.18h-7.31v-10.54H1477Z" transform="translate(-931.5 -614.7)"/><path class="cls-8" d="M1487.14,2423.58v-75.26h33v11h-20.53v20.64h17.2v11h-17.2v21.72h20.86v11Z" transform="translate(-931.5 -614.7)"/><path class="cls-8" d="M1557.56,2423.58l-9.57-30h-6.23v30h-12.48v-75.26h19.46c11.4,0,18.93,4.51,18.93,15.91v13.44c0,7.2-3,11.72-8.17,14l10.75,31.94Zm-15.8-40.75h6.55c4.09,0,6.88-1.51,6.88-6.88v-9.79c0-5.37-2.79-6.88-6.88-6.88h-6.55Z" transform="translate(-931.5 -614.7)"/><path class="cls-8" d="M1578.2,2423.58v-75.26h12.48v75.26Z" transform="translate(-931.5 -614.7)"/><path class="cls-8" d="M1625.83,2406.8h-13.76l-2.69,16.78h-12l14-75.26H1627l14.19,75.26h-12.69Zm-1.61-10.32L1619,2363l-5.27,33.44Z" transform="translate(-931.5 -614.7)"/></svg>